TypeMedia1314-WoodTypeWide.ufo
<glyph name="exclam" format="1">
  <advance width="707"/>
  <unicode hex="0021"/>
  <outline>
    <contour>
      <point x="351" y="742" type="curve"/>
      <point x="417" y="742"/>
      <point x="483" y="750"/>
      <point x="549" y="750" type="curve"/>
      <point x="677" y="750"/>
      <point x="708" y="643"/>
      <point x="708" y="539" type="curve"/>
      <point x="708" y="346"/>
      <point x="492" y="292"/>
      <point x="492" y="208" type="curve"/>
      <point x="399" y="213"/>
      <point x="305" y="213"/>
      <point x="210" y="208" type="curve"/>
      <point x="210" y="292"/>
      <point x="-6" y="346"/>
      <point x="-6" y="539" type="curve"/>
      <point x="-6" y="643"/>
      <point x="25" y="750"/>
      <point x="153" y="750" type="curve"/>
      <point x="219" y="750"/>
      <point x="285" y="742"/>
    </contour>
    <component base="period"/>
  </outline>
</glyph>
<glyph name="comma" format="1">
  <advance width="708"/>
  <unicode hex="002C"/>
  <outline>
    <contour>
      <point x="644" y="-152" type="line"/>
      <point x="593" y="-191"/>
      <point x="503" y="-210"/>
      <point x="351" y="-210" type="curve" smooth="yes"/>
      <point x="43" y="-210"/>
      <point x="-6" y="-132"/>
      <point x="-6" y="31" type="curve" smooth="yes"/>
      <point x="-6" y="195"/>
      <point x="43" y="271"/>
      <point x="351" y="271" type="curve" smooth="yes"/>
      <point x="658" y="271"/>
      <point x="707" y="171"/>
      <point x="707" y="-2" type="curve" smooth="yes"/>
      <point x="707" y="-174"/>
      <point x="658" y="-300"/>
      <point x="351" y="-300" type="curve" smooth="yes"/>
      <point x="183" y="-300"/>
      <point x="62" y="-256"/>
      <point x="14" y="-208" type="curve"/>
      <point x="44" y="-177" type="line"/>
      <point x="92" y="-225"/>
      <point x="183" y="-250"/>
      <point x="308" y="-250" type="curve" smooth="yes"/>
      <point x="488" y="-250"/>
      <point x="584" y="-194"/>
      <point x="625" y="-116" type="curve"/>
    </contour>
  </outline>
</glyph>
<glyph name="period" format="1">
  <advance width="707"/>
  <unicode hex="002E"/>
  <outline>
    <contour>
      <point x="351" y="-250" type="curve" smooth="yes"/>
      <point x="43" y="-250"/>
      <point x="-6" y="-172"/>
      <point x="-6" y="-9" type="curve" smooth="yes"/>
      <point x="-6" y="155"/>
      <point x="43" y="231"/>
      <point x="351" y="231" type="curve" smooth="yes"/>
      <point x="658" y="231"/>
      <point x="707" y="155"/>
      <point x="707" y="-9" type="curve" smooth="yes"/>
      <point x="707" y="-172"/>
      <point x="658" y="-250"/>
    </contour>
  </outline>
</glyph>
<glyph name="one" format="1">
  <advance width="1414"/>
  <unicode hex="0031"/>
  <outline>
    <contour>
      <point x="0" y="587" type="curve"/>
      <point x="216" y="587"/>
      <point x="388" y="638"/>
      <point x="529" y="750" type="curve"/>
      <point x="771" y="737"/>
      <point x="1056" y="737"/>
      <point x="1314" y="750" type="curve"/>
      <point x="1310" y="540"/>
      <point x="1305" y="208"/>
      <point x="1314" y="0" type="curve"/>
      <point x="1414" y="0" type="line"/>
      <point x="1407" y="-83"/>
      <point x="1407" y="-167"/>
      <point x="1414" y="-250" type="curve"/>
      <point x="955" y="-235"/>
      <point x="483" y="-235"/>
      <point x="0" y="-250" type="curve"/>
      <point x="7" y="-167"/>
      <point x="7" y="-83"/>
      <point x="0" y="0" type="curve"/>
      <point x="100" y="0" type="line"/>
      <point x="106" y="80"/>
      <point x="106" y="186"/>
      <point x="100" y="280" type="curve"/>
      <point x="0" y="280" type="line"/>
      <point x="5" y="382"/>
      <point x="5" y="485"/>
    </contour>
  </outline>
</glyph>
<glyph name="two" format="1">
  <advance width="1414"/>
  <unicode hex="0032"/>
  <outline>
    <contour>
      <point x="37" y="218" type="curve"/>
      <point x="527" y="228" type="line"/>
      <point x="527" y="228"/>
      <point x="525" y="257"/>
      <point x="529" y="298" type="curve" smooth="yes"/>
      <point x="538" y="393"/>
      <point x="626" y="384"/>
      <point x="631" y="300" type="curve" smooth="yes"/>
      <point x="638" y="189"/>
      <point x="460" y="174"/>
      <point x="48" y="174" type="curve"/>
      <point x="54" y="-5"/>
      <point x="50" y="-75"/>
      <point x="35" y="-256" type="curve"/>
      <point x="475" y="-250" type="line"/>
      <point x="456" y="-143"/>
      <point x="448" y="47"/>
      <point x="462" y="154" type="curve"/>
      <point x="1234" y="192"/>
      <point x="1399" y="282"/>
      <point x="1399" y="469" type="curve" smooth="yes"/>
      <point x="1399" y="642"/>
      <point x="1256" y="741"/>
      <point x="908" y="741" type="curve" smooth="yes"/>
      <point x="516" y="741"/>
      <point x="349" y="601"/>
      <point x="413" y="313" type="curve"/>
      <point x="415" y="318" type="line"/>
      <point x="400" y="420"/>
      <point x="420" y="642"/>
      <point x="465" y="750" type="curve"/>
      <point x="321" y="741"/>
      <point x="170" y="740"/>
      <point x="27" y="743" type="curve"/>
      <point x="44" y="611"/>
      <point x="46" y="350"/>
    </contour>
    <contour>
      <point x="367" y="-113" type="line"/>
      <point x="601" y="-99" type="line"/>
      <point x="469" y="-66" type="line"/>
      <point x="484" y="-194"/>
      <point x="549" y="-257"/>
      <point x="952" y="-257" type="curve" smooth="yes"/>
      <point x="1292" y="-257"/>
      <point x="1387" y="-163"/>
      <point x="1387" y="-9" type="curve" smooth="yes"/>
      <point x="1387" y="91"/>
      <point x="1362" y="142"/>
      <point x="1323" y="187" type="curve"/>
      <point x="972" y="178" type="line"/>
      <point x="964" y="101"/>
      <point x="916" y="-45"/>
      <point x="904" y="-51" type="curve"/>
      <point x="1223" y="129" type="line"/>
      <point x="1126" y="128"/>
      <point x="947" y="154"/>
      <point x="784" y="152" type="curve" smooth="yes"/>
      <point x="560" y="149"/>
      <point x="355" y="113"/>
      <point x="355" y="113" type="curve"/>
    </contour>
  </outline>
</glyph>
<glyph name="four" format="1">
  <advance width="1414"/>
  <unicode hex="0034"/>
  <outline>
    <contour>
      <point x="451" y="296" type="line" smooth="yes"/>
      <point x="441" y="296"/>
      <point x="437" y="307"/>
      <point x="445" y="313" type="curve" smooth="yes"/>
      <point x="488" y="349"/>
      <point x="535" y="400"/>
      <point x="571" y="470" type="curve" smooth="yes"/>
      <point x="576" y="479"/>
      <point x="597" y="475"/>
      <point x="597" y="466" type="curve" smooth="yes"/>
      <point x="597" y="311" type="line" smooth="yes"/>
      <point x="597" y="302"/>
      <point x="591" y="296"/>
      <point x="582" y="296" type="curve" smooth="yes"/>
    </contour>
    <contour>
      <point x="1217" y="55"/>
      <point x="1336" y="51"/>
      <point x="1414" y="51" type="curve"/>
      <point x="1404" y="202"/>
      <point x="1404" y="352"/>
      <point x="1414" y="503" type="curve"/>
      <point x="1368" y="501"/>
      <point x="1289" y="501"/>
      <point x="1243" y="503" type="curve"/>
      <point x="1243" y="377"/>
      <point x="1230" y="324"/>
      <point x="1185" y="305" type="curve" smooth="yes"/>
      <point x="1174" y="301"/>
      <point x="1164" y="309"/>
      <point x="1164" y="321" type="curve" smooth="yes"/>
      <point x="1164" y="750" type="line"/>
      <point x="1002" y="740"/>
      <point x="656" y="740"/>
      <point x="494" y="750" type="curve"/>
      <point x="427" y="575"/>
      <point x="153" y="432"/>
      <point x="0" y="406" type="curve"/>
      <point x="10" y="334"/>
      <point x="10" y="123"/>
      <point x="0" y="51" type="curve"/>
      <point x="232" y="51"/>
      <point x="289" y="51"/>
      <point x="546" y="60" type="curve" smooth="yes"/>
      <point x="570" y="61"/>
      <point x="576" y="55"/>
      <point x="576" y="31" type="curve" smooth="yes"/>
      <point x="576" y="10" type="line" smooth="yes"/>
      <point x="576" y="1"/>
      <point x="570" y="-5"/>
      <point x="561" y="-5" type="curve"/>
      <point x="408" y="-5"/>
      <point x="324" y="-1"/>
      <point x="169" y="7" type="curve"/>
      <point x="163" y="-75"/>
      <point x="163" y="-168"/>
      <point x="169" y="-250" type="curve"/>
      <point x="603" y="-240"/>
      <point x="1140" y="-240"/>
      <point x="1414" y="-250" type="curve"/>
      <point x="1407" y="-168"/>
      <point x="1407" y="-76"/>
      <point x="1414" y="6" type="curve"/>
      <point x="1346" y="-3"/>
      <point x="1267" y="-6"/>
      <point x="1179" y="-5" type="curve"/>
      <point x="1170" y="-5"/>
      <point x="1164" y="1"/>
      <point x="1164" y="10" type="curve" smooth="yes"/>
      <point x="1164" y="31" type="line" smooth="yes"/>
      <point x="1164" y="49"/>
      <point x="1170" y="55"/>
      <point x="1194" y="55" type="curve" smooth="yes"/>
    </contour>
  </outline>
</glyph>
<glyph name="five" format="1">
  <advance width="1414"/>
  <unicode hex="0035"/>
  <outline>
    <contour>
      <point x="310" y="120" type="curve"/>
      <point x="232" y="134"/>
      <point x="145.0" y="155.0"/>
      <point x="0.0" y="150.0" type="curve"/>
      <point x="0.0" y="-160.0" type="line"/>
      <point x="158.0" y="-200.0"/>
      <point x="405.0" y="-250.0"/>
      <point x="736.0" y="-250.0" type="curve" smooth="yes"/>
      <point x="1148.0" y="-250.0"/>
      <point x="1415.0" y="-165.0"/>
      <point x="1415.0" y="97.0" type="curve" smooth="yes"/>
      <point x="1415.0" y="359.0"/>
      <point x="1141" y="410"/>
      <point x="832" y="410" type="curve" smooth="yes"/>
      <point x="721" y="410"/>
      <point x="657" y="376"/>
      <point x="566" y="360" type="curve"/>
      <point x="566" y="393"/>
      <point x="558" y="469"/>
      <point x="556" y="500" type="curve"/>
      <point x="1137" y="500"/>
      <point x="1249" y="360"/>
      <point x="1414" y="360" type="curve"/>
      <point x="1414.0" y="750.0" type="line"/>
      <point x="967" y="750" type="line" smooth="yes"/>
      <point x="751" y="750"/>
      <point x="621" y="699"/>
      <point x="573" y="659" type="curve"/>
      <point x="577" y="689"/>
      <point x="582" y="729"/>
      <point x="578" y="750" type="curve"/>
      <point x="0.0" y="750.0" type="line"/>
      <point x="0" y="200" type="line"/>
      <point x="107" y="200"/>
      <point x="270" y="189"/>
      <point x="400" y="152" type="curve"/>
      <point x="426" y="165"/>
      <point x="485" y="189"/>
      <point x="530" y="189" type="curve" smooth="yes"/>
      <point x="645" y="189"/>
      <point x="688.0" y="173.0"/>
      <point x="688.0" y="117.0" type="curve" smooth="yes"/>
      <point x="688.0" y="54.0"/>
      <point x="637" y="10"/>
      <point x="560" y="10" type="curve" smooth="yes"/>
      <point x="446" y="10"/>
      <point x="365" y="61"/>
    </contour>
  </outline>
</glyph>
<glyph name="six" format="1">
  <advance width="1414"/>
  <unicode hex="0036"/>
  <outline>
    <contour>
      <point x="625" y="155" type="line"/>
      <point x="672" y="200"/>
      <point x="778" y="234"/>
      <point x="1026" y="234" type="curve"/>
      <point x="1257" y="234"/>
      <point x="1414" y="176"/>
      <point x="1414" y="26" type="curve" smooth="yes"/>
      <point x="1414" y="-91"/>
      <point x="1320" y="-262"/>
      <point x="703" y="-262" type="curve" smooth="yes"/>
      <point x="113" y="-262"/>
      <point x="0" y="-144"/>
      <point x="0" y="251" type="curve" smooth="yes"/>
      <point x="0" y="575"/>
      <point x="90" y="750"/>
      <point x="447" y="750" type="curve" smooth="yes"/>
      <point x="704" y="750"/>
      <point x="778" y="709"/>
      <point x="815" y="571" type="curve"/>
      <point x="803" y="679"/>
      <point x="794" y="738"/>
      <point x="794" y="738" type="curve"/>
      <point x="990" y="732"/>
      <point x="1274" y="734"/>
      <point x="1414" y="738" type="curve"/>
      <point x="1404" y="556"/>
      <point x="1408" y="295"/>
      <point x="1414" y="249" type="curve"/>
      <point x="1138" y="258"/>
      <point x="922" y="261"/>
      <point x="816" y="256" type="curve"/>
      <point x="816" y="311"/>
      <point x="791" y="330"/>
      <point x="742" y="330" type="curve" smooth="yes"/>
      <point x="692" y="330"/>
      <point x="670" y="284"/>
      <point x="670" y="156" type="curve" smooth="yes"/>
      <point x="670" y="36"/>
      <point x="687" y="21"/>
      <point x="730" y="21" type="curve" smooth="yes"/>
      <point x="764" y="21"/>
      <point x="783" y="32"/>
      <point x="783" y="69" type="curve" smooth="yes"/>
      <point x="783" y="118"/>
      <point x="766" y="142"/>
      <point x="657" y="126" type="curve"/>
    </contour>
  </outline>
</glyph>
<glyph name="eight" format="1">
  <advance width="1414"/>
  <unicode hex="0038"/>
  <outline>
    <contour>
      <point x="638" y="128"/>
      <point x="774" y="105"/>
      <point x="774" y="63" type="curve" smooth="yes"/>
      <point x="774" y="35"/>
      <point x="749" y="21"/>
      <point x="696" y="21" type="curve" smooth="yes"/>
      <point x="509" y="21"/>
      <point x="443" y="45"/>
      <point x="443" y="108" type="curve" smooth="yes"/>
      <point x="443" y="136"/>
      <point x="454" y="150"/>
      <point x="473" y="164" type="curve"/>
    </contour>
    <contour>
      <point x="778" y="383"/>
      <point x="642" y="396"/>
      <point x="642" y="438" type="curve" smooth="yes"/>
      <point x="642" y="466"/>
      <point x="677" y="480"/>
      <point x="730" y="480" type="curve" smooth="yes"/>
      <point x="897" y="480"/>
      <point x="973" y="466"/>
      <point x="973" y="403" type="curve" smooth="yes"/>
      <point x="973" y="375"/>
      <point x="959" y="361"/>
      <point x="943" y="347" type="curve"/>
    </contour>
    <contour>
      <point x="707" y="-250" type="curve" smooth="yes"/>
      <point x="1119" y="-250"/>
      <point x="1415" y="-152"/>
      <point x="1415" y="80" type="curve" smooth="yes"/>
      <point x="1415" y="239"/>
      <point x="1259" y="284"/>
      <point x="1131" y="302" type="curve"/>
      <point x="1289" y="328"/>
      <point x="1415" y="383"/>
      <point x="1415" y="490" type="curve" smooth="yes"/>
      <point x="1415" y="672"/>
      <point x="1119" y="750"/>
      <point x="707" y="750" type="curve" smooth="yes"/>
      <point x="279" y="750"/>
      <point x="0" y="635"/>
      <point x="0" y="440" type="curve" smooth="yes"/>
      <point x="0" y="301"/>
      <point x="156" y="229"/>
      <point x="292" y="189" type="curve"/>
      <point x="178" y="173"/>
      <point x="0" y="132"/>
      <point x="0" y="0" type="curve" smooth="yes"/>
      <point x="0" y="-153"/>
      <point x="279" y="-250"/>
    </contour>
  </outline>
</glyph>
<glyph name="nine" format="1">
  <advance width="1414"/>
  <unicode hex="0039"/>
  <outline>
    <contour>
      <point x="789" y="192" type="line"/>
      <point x="742" y="134"/>
      <point x="636" y="90"/>
      <point x="388" y="90" type="curve"/>
      <point x="157" y="90"/>
      <point x="0" y="165"/>
      <point x="0" y="359" type="curve" smooth="yes"/>
      <point x="0" y="594"/>
      <point x="94" y="750"/>
      <point x="711" y="750" type="curve" smooth="yes"/>
      <point x="1301" y="750"/>
      <point x="1414" y="632"/>
      <point x="1414" y="237" type="curve" smooth="yes"/>
      <point x="1414" y="-87"/>
      <point x="1324" y="-262"/>
      <point x="967" y="-262" type="curve" smooth="yes"/>
      <point x="710" y="-262"/>
      <point x="636" y="-221"/>
      <point x="599" y="-95" type="curve"/>
      <point x="611" y="-194"/>
      <point x="620" y="-250"/>
      <point x="620" y="-250" type="curve"/>
      <point x="424" y="-244"/>
      <point x="140" y="-246"/>
      <point x="0" y="-250" type="curve"/>
      <point x="10" y="-68"/>
      <point x="6" y="11"/>
      <point x="0" y="70" type="curve"/>
      <point x="276" y="59"/>
      <point x="492" y="55"/>
      <point x="598" y="61" type="curve"/>
      <point x="598" y="-9"/>
      <point x="623" y="-35"/>
      <point x="672" y="-35" type="curve" smooth="yes"/>
      <point x="722" y="-35"/>
      <point x="744" y="25"/>
      <point x="744" y="190" type="curve" smooth="yes"/>
      <point x="744" y="346"/>
      <point x="727" y="365"/>
      <point x="684" y="365" type="curve" smooth="yes"/>
      <point x="650" y="365"/>
      <point x="631" y="351"/>
      <point x="631" y="303" type="curve" smooth="yes"/>
      <point x="631" y="239"/>
      <point x="648" y="208"/>
      <point x="757" y="229" type="curve"/>
    </contour>
  </outline>
</glyph>
<glyph name="C" format="1">
  <advance width="1414"/>
  <unicode hex="0043"/>
  <outline>
    <contour>
      <point x="1161" y="740"/>
      <point x="1287" y="740"/>
      <point x="1414" y="750" type="curve"/>
      <point x="1404" y="595"/>
      <point x="1404" y="439"/>
      <point x="1414" y="284" type="curve"/>
      <point x="1046" y="232" type="line"/>
      <point x="1014" y="315"/>
      <point x="903" y="432"/>
      <point x="706" y="432" type="curve" smooth="yes"/>
      <point x="540" y="432"/>
      <point x="466" y="352"/>
      <point x="466" y="270" type="curve" smooth="yes"/>
      <point x="466" y="188"/>
      <point x="590" y="100"/>
      <point x="838" y="100" type="curve" smooth="yes"/>
      <point x="1086" y="100"/>
      <point x="1274" y="198"/>
      <point x="1402" y="264" type="curve"/>
      <point x="1419" y="180"/>
      <point x="1419" y="0"/>
      <point x="1402" y="-84" type="curve"/>
      <point x="1264" y="-171"/>
      <point x="1133" y="-250"/>
      <point x="778" y="-250" type="curve" smooth="yes"/>
      <point x="405" y="-250"/>
      <point x="0" y="-116"/>
      <point x="0" y="242" type="curve" smooth="yes"/>
      <point x="0" y="589"/>
      <point x="283" y="750"/>
      <point x="620" y="750" type="curve" smooth="yes"/>
      <point x="830" y="750"/>
      <point x="949" y="676"/>
      <point x="1030" y="573" type="curve" smooth="yes"/>
      <point x="1038" y="563"/>
      <point x="1050" y="566"/>
      <point x="1050" y="573" type="curve" smooth="yes"/>
      <point x="1049" y="632"/>
      <point x="1041" y="691"/>
      <point x="1034" y="750" type="curve"/>
    </contour>
  </outline>
</glyph>
<glyph name="D" format="1">
  <advance width="1414"/>
  <unicode hex="0044"/>
  <outline>
    <contour>
      <point x="645" y="55" type="curve"/>
      <point x="642" y="203"/>
      <point x="643" y="345"/>
      <point x="645" y="458" type="curve"/>
      <point x="818" y="458"/>
      <point x="849" y="441"/>
      <point x="849" y="257" type="curve"/>
      <point x="849" y="82"/>
      <point x="824" y="55"/>
    </contour>
    <contour>
      <point x="990" y="750" type="curve" smooth="yes"/>
      <point x="885.971186441" y="750.0"/>
      <point x="684.679661017" y="742.0"/>
      <point x="491.0" y="742.0" type="curve" smooth="yes"/>
      <point x="294.0" y="742.0"/>
      <point x="104.0" y="748.0"/>
      <point x="0.0" y="750.0" type="curve"/>
      <point x="5.0" y="633.0"/>
      <point x="5.0" y="517.0"/>
      <point x="0.0" y="400.0" type="curve"/>
      <point x="87.5779816514" y="400.0"/>
      <point x="129" y="360.0"/>
      <point x="129" y="300" type="curve" smooth="yes"/>
      <point x="129" y="200" type="line" smooth="yes"/>
      <point x="129" y="140.0"/>
      <point x="87.5779816514" y="100.0"/>
      <point x="0.0" y="100.0" type="curve"/>
      <point x="5.0" y="-16.0"/>
      <point x="5.0" y="-132.0"/>
      <point x="0.0" y="-250.0" type="curve"/>
      <point x="107.0" y="-248.0"/>
      <point x="311" y="-246"/>
      <point x="516" y="-246" type="curve" smooth="yes"/>
      <point x="703.272887324" y="-246.0"/>
      <point x="892.225352113" y="-250.0"/>
      <point x="993" y="-250" type="curve" smooth="yes"/>
      <point x="1380.83030303" y="-250.0"/>
      <point x="1414.0" y="-32.0"/>
      <point x="1414" y="276" type="curve"/>
      <point x="1414.0" y="662.0"/>
      <point x="1293.03903904" y="750.0"/>
    </contour>
  </outline>
</glyph>
<glyph name="G" format="1">
  <advance width="1414"/>
  <unicode hex="0047"/>
  <outline>
    <contour>
      <point x="1055" y="740"/>
      <point x="1232" y="739"/>
      <point x="1414" y="750" type="curve"/>
      <point x="1404" y="595"/>
      <point x="1404" y="489"/>
      <point x="1414" y="334" type="curve"/>
      <point x="1223" y="299"/>
      <point x="1043" y="281"/>
      <point x="876" y="282" type="curve"/>
      <point x="850" y="349"/>
      <point x="801" y="386"/>
      <point x="702" y="387" type="curve"/>
      <point x="631" y="387"/>
      <point x="592" y="345"/>
      <point x="592" y="279" type="curve"/>
      <point x="592" y="189"/>
      <point x="674" y="114"/>
      <point x="838" y="114" type="curve" smooth="yes"/>
      <point x="923" y="114"/>
      <point x="936" y="142"/>
      <point x="936" y="159" type="curve" smooth="yes"/>
      <point x="936" y="185"/>
      <point x="876" y="175"/>
      <point x="781" y="179" type="curve"/>
      <point x="783" y="199"/>
      <point x="783" y="235"/>
      <point x="781" y="258" type="curve"/>
      <point x="969" y="236"/>
      <point x="1272" y="259"/>
      <point x="1405" y="267" type="curve"/>
      <point x="1401" y="142"/>
      <point x="1357" y="-101"/>
      <point x="1314" y="-248" type="curve"/>
      <point x="1215" y="-250" type="line"/>
      <point x="1180" y="-193"/>
      <point x="1106" y="-109"/>
      <point x="1032" y="-50" type="curve"/>
      <point x="1015" y="-163"/>
      <point x="898" y="-250"/>
      <point x="613" y="-250" type="curve" smooth="yes"/>
      <point x="282" y="-250"/>
      <point x="0" y="-116"/>
      <point x="0" y="280" type="curve"/>
      <point x="0" y="589"/>
      <point x="187" y="750"/>
      <point x="466" y="750" type="curve" smooth="yes"/>
      <point x="718" y="750"/>
      <point x="913" y="654"/>
      <point x="960" y="493" type="curve" smooth="yes"/>
      <point x="964" y="480"/>
      <point x="980" y="481"/>
      <point x="980" y="493" type="curve" smooth="yes"/>
      <point x="980" y="579"/>
      <point x="919" y="677"/>
      <point x="864" y="750" type="curve"/>
    </contour>
  </outline>
</glyph>
<glyph name="H" format="1">
  <advance width="1414"/>
  <unicode hex="0048"/>
  <outline>
    <contour>
      <point x="826" y="120" type="curve"/>
      <point x="826" y="60"/>
      <point x="792" y="20"/>
      <point x="731" y="20" type="curve"/>
      <point x="734" y="-66"/>
      <point x="734" y="-156"/>
      <point x="731" y="-250" type="curve"/>
      <point x="961" y="-245"/>
      <point x="1190.45056463" y="-244.651927383"/>
      <point x="1414" y="-250" type="curve"/>
      <point x="1409" y="-133"/>
      <point x="1409" y="-17"/>
      <point x="1414" y="100" type="curve"/>
      <point x="1340" y="100"/>
      <point x="1305" y="140"/>
      <point x="1305" y="200" type="curve" smooth="yes"/>
      <point x="1305" y="300" type="line" smooth="yes"/>
      <point x="1305" y="360"/>
      <point x="1340" y="400"/>
      <point x="1414" y="400" type="curve"/>
      <point x="1409" y="516"/>
      <point x="1409" y="632"/>
      <point x="1414" y="750" type="curve"/>
      <point x="1190.45056463" y="744.651927383"/>
      <point x="961" y="745"/>
      <point x="731" y="750" type="curve"/>
      <point x="734" y="656"/>
      <point x="734" y="566"/>
      <point x="731" y="480" type="curve"/>
      <point x="792" y="480"/>
      <point x="826" y="440"/>
      <point x="826" y="380" type="curve"/>
      <point x="826" y="365"/>
      <point x="821" y="358"/>
      <point x="809" y="358" type="curve"/>
      <point x="742" y="354"/>
      <point x="673" y="355"/>
      <point x="605" y="358" type="curve"/>
      <point x="593" y="358"/>
      <point x="588" y="365"/>
      <point x="588" y="380" type="curve"/>
      <point x="588" y="440"/>
      <point x="622" y="480"/>
      <point x="683" y="480" type="curve"/>
      <point x="680" y="566"/>
      <point x="680" y="656"/>
      <point x="683" y="750" type="curve"/>
      <point x="453" y="745"/>
      <point x="224" y="745"/>
      <point x="0" y="750" type="curve"/>
      <point x="5" y="633"/>
      <point x="5" y="517"/>
      <point x="0" y="400" type="curve"/>
      <point x="74" y="400"/>
      <point x="109" y="360"/>
      <point x="109" y="300" type="curve" smooth="yes"/>
      <point x="109" y="200" type="line" smooth="yes"/>
      <point x="109" y="140"/>
      <point x="74" y="100"/>
      <point x="0" y="100" type="curve"/>
      <point x="5" y="-16"/>
      <point x="5" y="-132"/>
      <point x="0" y="-250" type="curve"/>
      <point x="224" y="-245"/>
      <point x="453" y="-245"/>
      <point x="683" y="-250" type="curve"/>
      <point x="680" y="-156"/>
      <point x="680" y="-66"/>
      <point x="683" y="20" type="curve"/>
      <point x="622" y="20"/>
      <point x="588" y="60"/>
      <point x="588" y="120" type="curve"/>
      <point x="588" y="135"/>
      <point x="593" y="142"/>
      <point x="605" y="142" type="curve"/>
      <point x="672" y="145"/>
      <point x="741" y="146"/>
      <point x="809" y="142" type="curve"/>
      <point x="821" y="142"/>
      <point x="826" y="135"/>
    </contour>
  </outline>
</glyph>
<glyph name="I" format="1">
  <advance width="1414"/>
  <unicode hex="0049"/>
  <outline>
    <contour>
      <point x="154" y="627" type="line"/>
      <point x="320" y="685" type="line"/>
      <point x="454" y="682" type="line"/>
      <point x="406" y="215" type="line"/>
      <point x="297" y="230" type="line"/>
      <point x="333" y="538" type="line"/>
      <point x="197" y="519" type="line"/>
    </contour>
    <contour>
      <point x="762" y="673" type="line"/>
      <point x="965" y="668" type="line"/>
      <point x="508" y="-233" type="line"/>
      <point x="365" y="-158" type="line"/>
    </contour>
    <contour>
      <point x="943" y="213" type="line"/>
      <point x="947" y="209"/>
      <point x="965" y="397"/>
      <point x="1111" y="397" type="curve" smooth="yes"/>
      <point x="1257" y="397"/>
      <point x="1312" y="283"/>
      <point x="1312" y="170" type="curve" smooth="yes"/>
      <point x="1312" y="57"/>
      <point x="1024" y="-90"/>
      <point x="1024" y="-90" type="curve"/>
      <point x="1282" y="-85" type="line"/>
      <point x="1251" y="-216" type="line"/>
      <point x="1251" y="-216"/>
      <point x="876" y="-208"/>
      <point x="887" y="-186" type="curve" smooth="yes"/>
      <point x="898" y="-164"/>
      <point x="935" y="6"/>
      <point x="935" y="6" type="curve"/>
      <point x="935" y="6"/>
      <point x="1166" y="45"/>
      <point x="1166" y="175" type="curve" smooth="yes"/>
      <point x="1166" y="305"/>
      <point x="1095" y="339"/>
      <point x="1070" y="267" type="curve" smooth="yes"/>
      <point x="1045" y="195"/>
      <point x="1038" y="156"/>
      <point x="1038" y="156" type="curve"/>
    </contour>
  </outline>
</glyph>
<glyph name="J" format="1">
  <advance width="1414"/>
  <unicode hex="004A"/>
  <outline>
    <contour>
      <point x="1305" y="196" type="curve" smooth="yes"/>
      <point x="1305" y="300" type="line" smooth="yes"/>
      <point x="1305" y="360"/>
      <point x="1340" y="400"/>
      <point x="1414" y="400" type="curve"/>
      <point x="1409" y="516"/>
      <point x="1409" y="632"/>
      <point x="1414" y="750" type="curve"/>
      <point x="1190" y="745"/>
      <point x="581" y="745"/>
      <point x="351" y="750" type="curve"/>
      <point x="354" y="656"/>
      <point x="354" y="556"/>
      <point x="351" y="470" type="curve"/>
      <point x="588" y="470"/>
      <point x="746" y="420"/>
      <point x="746" y="235" type="curve" smooth="yes"/>
      <point x="746" y="188" type="line" smooth="yes"/>
      <point x="746" y="46"/>
      <point x="696" y="18"/>
      <point x="614" y="18" type="curve" smooth="yes"/>
      <point x="577" y="18"/>
      <point x="555" y="21"/>
      <point x="525" y="44" type="curve"/>
      <point x="587" y="63"/>
      <point x="652" y="99"/>
      <point x="652" y="202" type="curve" smooth="yes"/>
      <point x="652" y="363"/>
      <point x="525" y="426"/>
      <point x="355" y="426" type="curve" smooth="yes"/>
      <point x="175" y="426"/>
      <point x="37" y="306"/>
      <point x="37" y="122" type="curve" smooth="yes"/>
      <point x="37" y="-90"/>
      <point x="245" y="-250"/>
      <point x="616" y="-250" type="curve" smooth="yes"/>
      <point x="926" y="-250"/>
      <point x="1305" y="-190"/>
    </contour>
  </outline>
</glyph>
<glyph name="K" format="1">
  <advance width="1414"/>
  <unicode hex="004B"/>
  <outline>
    <contour>
      <point x="109" y="300" type="curve"/>
      <point x="109" y="200" type="line"/>
      <point x="109" y="140"/>
      <point x="74" y="100"/>
      <point x="0" y="100" type="curve"/>
      <point x="0" y="-250" type="line"/>
      <point x="638" y="-250" type="line"/>
      <point x="638" y="20" type="line"/>
      <point x="596" y="24"/>
      <point x="579" y="64"/>
      <point x="579" y="97" type="curve" smooth="yes"/>
      <point x="579" y="140"/>
      <point x="597" y="172"/>
      <point x="636" y="172" type="curve" smooth="yes"/>
      <point x="693" y="172"/>
      <point x="708" y="148"/>
      <point x="709" y="71" type="curve" smooth="yes"/>
      <point x="712" y="-140"/>
      <point x="756" y="-250"/>
      <point x="1046" y="-250" type="curve" smooth="yes"/>
      <point x="1245" y="-250"/>
      <point x="1414" y="-136"/>
      <point x="1414" y="207" type="curve" smooth="yes"/>
      <point x="1414" y="380" type="line"/>
      <point x="1208" y="380" type="line"/>
      <point x="1208" y="296" type="line" smooth="yes"/>
      <point x="1208" y="236"/>
      <point x="1185" y="211"/>
      <point x="1158" y="211" type="curve" smooth="yes"/>
      <point x="1066" y="211"/>
      <point x="1096" y="342"/>
      <point x="890" y="342" type="curve" smooth="yes"/>
      <point x="842" y="342"/>
      <point x="784" y="327"/>
      <point x="737" y="271" type="curve" smooth="yes"/>
      <point x="729" y="261"/>
      <point x="725" y="252"/>
      <point x="715" y="252" type="curve" smooth="yes"/>
      <point x="709" y="252"/>
      <point x="703" y="255"/>
      <point x="703" y="264" type="curve" smooth="yes"/>
      <point x="703" y="272"/>
      <point x="709" y="280"/>
      <point x="717" y="290" type="curve" smooth="yes"/>
      <point x="784" y="376"/>
      <point x="907" y="480"/>
      <point x="1061" y="480" type="curve"/>
      <point x="1217" y="480" type="line"/>
      <point x="1217" y="750" type="line"/>
      <point x="689" y="750" type="line"/>
      <point x="689" y="480" type="line"/>
      <point x="784" y="439"/>
      <point x="574" y="336"/>
      <point x="574" y="254" type="curve"/>
      <point x="574" y="240"/>
      <point x="566" y="235"/>
      <point x="560" y="235" type="curve" smooth="yes"/>
      <point x="548" y="235"/>
      <point x="543" y="242"/>
      <point x="543" y="257" type="curve" smooth="yes"/>
      <point x="543" y="380" type="line" smooth="yes"/>
      <point x="543" y="440"/>
      <point x="577" y="480"/>
      <point x="638" y="480" type="curve"/>
      <point x="638" y="750" type="line"/>
      <point x="0" y="750" type="line"/>
      <point x="0" y="400" type="line"/>
      <point x="74" y="400"/>
      <point x="109" y="360"/>
    </contour>
  </outline>
</glyph>
<glyph name="N" format="1">
  <advance width="1414"/>
  <unicode hex="004E"/>
  <outline>
    <contour>
      <point x="862" y="-250" type="curve"/>
      <point x="1347" y="-250" type="line"/>
      <point x="1347" y="356" type="line" smooth="yes"/>
      <point x="1347" y="457"/>
      <point x="1372" y="486"/>
      <point x="1414" y="487" type="curve"/>
      <point x="1414.0" y="750.0" type="line"/>
      <point x="898" y="750" type="line"/>
      <point x="898" y="487" type="line"/>
      <point x="970" y="486"/>
      <point x="994" y="428"/>
      <point x="994" y="356" type="curve" smooth="yes"/>
      <point x="994" y="291" type="line" smooth="yes"/>
      <point x="994" y="277"/>
      <point x="987" y="275"/>
      <point x="976" y="283" type="curve" smooth="yes"/>
      <point x="893" y="348"/>
      <point x="657" y="630"/>
      <point x="565" y="750" type="curve"/>
      <point x="0.0" y="750.0" type="line"/>
      <point x="0" y="467" type="line"/>
      <point x="42" y="466"/>
      <point x="82" y="448"/>
      <point x="82" y="337" type="curve" smooth="yes"/>
      <point x="82" y="151" type="line" smooth="yes"/>
      <point x="82" y="40"/>
      <point x="42" y="22"/>
      <point x="0" y="21" type="curve"/>
      <point x="0.0" y="-250.0" type="line"/>
      <point x="471" y="-250" type="line"/>
      <point x="471" y="22" type="line"/>
      <point x="409" y="23"/>
      <point x="363" y="61"/>
      <point x="363" y="134" type="curve" smooth="yes"/>
      <point x="363" y="249" type="line"/>
      <point x="363" y="263"/>
      <point x="370" y="266"/>
      <point x="381" y="257" type="curve" smooth="yes"/>
      <point x="491" y="166"/>
      <point x="764" y="-146"/>
    </contour>
  </outline>
</glyph>
<glyph name="O" format="1">
  <advance width="1414"/>
  <unicode hex="004F"/>
  <outline>
    <contour>
      <point x="707" y="71" type="curve" smooth="yes"/>
      <point x="618.397849462" y="71.0"/>
      <point x="604.0" y="129.0"/>
      <point x="604" y="251" type="curve" smooth="yes"/>
      <point x="604.0" y="373.0"/>
      <point x="618.397849462" y="430.0"/>
      <point x="707" y="430" type="curve" smooth="yes"/>
      <point x="795.602150538" y="430.0"/>
      <point x="810.0" y="373.0"/>
      <point x="810" y="251" type="curve" smooth="yes"/>
      <point x="810.0" y="129.0"/>
      <point x="795.602150538" y="71.0"/>
    </contour>
    <contour>
      <point x="0" y="250" type="curve"/>
      <point x="0" y="-110"/>
      <point x="51" y="-250"/>
      <point x="360" y="-250" type="curve" smooth="yes"/>
      <point x="452.0" y="-250.0"/>
      <point x="566.0" y="-242.0"/>
      <point x="708" y="-242" type="curve" smooth="yes"/>
      <point x="886.0" y="-242.0"/>
      <point x="1019.0" y="-250.0"/>
      <point x="1121" y="-250" type="curve" smooth="yes"/>
      <point x="1365" y="-250"/>
      <point x="1416" y="-84"/>
      <point x="1416" y="250" type="curve"/>
      <point x="1416.0" y="583.667334669"/>
      <point x="1365.0" y="750.0"/>
      <point x="1121" y="750" type="curve" smooth="yes"/>
      <point x="1019.0" y="750.0"/>
      <point x="886.0" y="743.0"/>
      <point x="708" y="743" type="curve" smooth="yes"/>
      <point x="566.0" y="743.0"/>
      <point x="452.0" y="750.0"/>
      <point x="360" y="750" type="curve" smooth="yes"/>
      <point x="51.0" y="750.0"/>
      <point x="0.0" y="609.719438878"/>
    </contour>
  </outline>
</glyph>
<glyph name="Q" format="1">
  <advance width="1414"/>
  <unicode hex="0051"/>
  <outline>
    <contour>
      <point x="45.0" y="178.0" type="curve"/>
      <point x="34.0" y="224.0"/>
      <point x="14.0" y="295.0"/>
      <point x="14.0" y="371.0" type="curve" smooth="yes"/>
      <point x="14.0" y="546.0"/>
      <point x="122" y="750"/>
      <point x="705" y="750" type="curve"/>
      <point x="1321" y="750"/>
      <point x="1368" y="580"/>
      <point x="1368" y="441" type="curve" smooth="yes"/>
      <point x="1368" y="132"/>
      <point x="863.0" y="-250.0"/>
      <point x="326.0" y="-250.0" type="curve"/>
      <point x="123.0" y="-250.0"/>
      <point x="0.0" y="-186.0"/>
      <point x="0.0" y="-43.0" type="curve" smooth="yes"/>
      <point x="0.0" y="97.0"/>
      <point x="115.0" y="162.0"/>
      <point x="338.0" y="162.0" type="curve"/>
      <point x="627.0" y="162.0"/>
      <point x="969" y="90"/>
      <point x="1320" y="90" type="curve"/>
      <point x="1320" y="179" type="line"/>
      <point x="1413.0" y="179.0" type="line"/>
      <point x="1413.0" y="-249.0" type="line"/>
      <point x="972.0" y="-249.0"/>
      <point x="565.0" y="-2.0"/>
      <point x="388.0" y="-2.0" type="curve"/>
      <point x="359.0" y="-2.0"/>
      <point x="342.0" y="-18.0"/>
      <point x="342.0" y="-38.0" type="curve" smooth="yes"/>
      <point x="342.0" y="-62.0"/>
      <point x="356.0" y="-74.0"/>
      <point x="384.0" y="-74.0" type="curve" smooth="yes"/>
      <point x="578.0" y="-74.0"/>
      <point x="776.0" y="86.0"/>
      <point x="776.0" y="344.0" type="curve"/>
      <point x="776.0" y="431.0"/>
      <point x="762.0" y="485.0"/>
      <point x="698.0" y="485.0" type="curve" smooth="yes"/>
      <point x="632.0" y="485.0"/>
      <point x="594" y="423"/>
      <point x="620" y="290" type="curve"/>
      <point x="699.0" y="286.0" type="line"/>
      <point x="685.0" y="192.0" type="line"/>
      <point x="466.0" y="217.0"/>
      <point x="198.0" y="216.0"/>
    </contour>
  </outline>
</glyph>
<glyph name="T" format="1">
  <advance width="1414"/>
  <unicode hex="0054"/>
  <outline>
    <contour>
      <point x="1308" y="754"/>
      <point x="1177" y="754"/>
      <point x="1102" y="734" type="curve"/>
      <point x="1133" y="623"/>
      <point x="1110" y="589"/>
      <point x="1025" y="589" type="curve" smooth="yes"/>
      <point x="942" y="589"/>
      <point x="813" y="637"/>
      <point x="713" y="670" type="curve" smooth="yes"/>
      <point x="661" y="687"/>
      <point x="497" y="750"/>
      <point x="360" y="750" type="curve" smooth="yes"/>
      <point x="109" y="750"/>
      <point x="1" y="518"/>
      <point x="1" y="319" type="curve" smooth="yes"/>
      <point x="1" y="247"/>
      <point x="15" y="157"/>
      <point x="50" y="84" type="curve"/>
      <point x="134" y="66"/>
      <point x="252" y="66"/>
      <point x="336" y="84" type="curve"/>
      <point x="331" y="125"/>
      <point x="313" y="192"/>
      <point x="313" y="268" type="curve" smooth="yes"/>
      <point x="313" y="400"/>
      <point x="367" y="420"/>
      <point x="428" y="420" type="curve" smooth="yes"/>
      <point x="449" y="420"/>
      <point x="473" y="417"/>
      <point x="498" y="413" type="curve" smooth="yes"/>
      <point x="505" y="412"/>
      <point x="509" y="406"/>
      <point x="510" y="399" type="curve" smooth="yes"/>
      <point x="520" y="265"/>
      <point x="520" y="131"/>
      <point x="510" y="-3" type="curve" smooth="yes"/>
      <point x="509" y="-12"/>
      <point x="504" y="-18"/>
      <point x="495" y="-18" type="curve" smooth="yes"/>
      <point x="304" y="-18" type="line"/>
      <point x="295" y="-86"/>
      <point x="295" y="-182"/>
      <point x="304" y="-250" type="curve"/>
      <point x="562" y="-240"/>
      <point x="819" y="-240"/>
      <point x="1077" y="-250" type="curve"/>
      <point x="1086" y="-182"/>
      <point x="1086" y="-86"/>
      <point x="1077" y="-18" type="curve"/>
      <point x="841" y="-18" type="line" smooth="yes"/>
      <point x="832" y="-18"/>
      <point x="827" y="-12"/>
      <point x="826" y="-3" type="curve" smooth="yes"/>
      <point x="816" y="104"/>
      <point x="816" y="212"/>
      <point x="826" y="319" type="curve" smooth="yes"/>
      <point x="827" y="332"/>
      <point x="838" y="340"/>
      <point x="850" y="335" type="curve" smooth="yes"/>
      <point x="935" y="300"/>
      <point x="1017" y="262"/>
      <point x="1114" y="262" type="curve" smooth="yes"/>
      <point x="1277" y="262"/>
      <point x="1414" y="370"/>
      <point x="1414" y="576" type="curve" smooth="yes"/>
      <point x="1414" y="650"/>
      <point x="1396" y="697"/>
      <point x="1383" y="734" type="curve"/>
    </contour>
  </outline>
</glyph>
<glyph name="V" format="1">
  <advance width="1414"/>
  <unicode hex="0056"/>
  <outline>
    <contour>
      <point x="835.0" y="365.0" type="line"/>
      <point x="853.0" y="448.0"/>
      <point x="838.0" y="476.0"/>
      <point x="779.0" y="477.0" type="curve"/>
      <point x="780.0" y="565.0"/>
      <point x="780.0" y="655.0"/>
      <point x="779.0" y="747.0" type="curve"/>
      <point x="992.0" y="741.0"/>
      <point x="1198.0" y="742.0"/>
      <point x="1407.0" y="747.0" type="curve"/>
      <point x="1402.0" y="630.0"/>
      <point x="1402.0" y="514.0"/>
      <point x="1407.0" y="397.0" type="curve"/>
      <point x="1340.0" y="407.0"/>
      <point x="1288.0" y="368.0"/>
      <point x="1265.0" y="283.0" type="curve" smooth="yes"/>
      <point x="1122.0" y="-250.0" type="line"/>
      <point x="804.0" y="-236.0"/>
      <point x="545" y="-236"/>
      <point x="227" y="-250" type="curve"/>
      <point x="122" y="286" type="line" smooth="yes"/>
      <point x="105" y="372"/>
      <point x="67" y="410"/>
      <point x="0" y="400" type="curve"/>
      <point x="5" y="517"/>
      <point x="5" y="633"/>
      <point x="0" y="750" type="curve"/>
      <point x="209" y="745"/>
      <point x="496" y="745"/>
      <point x="711" y="750" type="curve"/>
      <point x="708" y="659"/>
      <point x="708" y="569"/>
      <point x="711" y="480" type="curve"/>
      <point x="650" y="480"/>
      <point x="625" y="452"/>
      <point x="643" y="369" type="curve" smooth="yes"/>
      <point x="703" y="97" type="line" smooth="yes"/>
      <point x="707" y="77"/>
      <point x="715" y="70"/>
      <point x="739" y="70" type="curve" smooth="yes"/>
      <point x="764" y="70"/>
      <point x="772" y="78"/>
      <point x="776" y="97" type="curve" smooth="yes"/>
    </contour>
  </outline>
</glyph>
<glyph name="W" format="1">
  <advance width="1414"/>
  <unicode hex="0057"/>
  <outline>
    <contour>
      <point x="1209" y="-250" type="curve"/>
      <point x="1302" y="286" type="line" smooth="yes"/>
      <point x="1317" y="371"/>
      <point x="1347" y="410"/>
      <point x="1414" y="400" type="curve"/>
      <point x="1409" y="518"/>
      <point x="1409.0" y="632.0"/>
      <point x="1414.0" y="750.0" type="curve"/>
      <point x="1272.0" y="747.0"/>
      <point x="1121" y="746"/>
      <point x="976" y="750" type="curve"/>
      <point x="977" y="657"/>
      <point x="977" y="579"/>
      <point x="976" y="490" type="curve"/>
      <point x="1035" y="489"/>
      <point x="1078" y="459"/>
      <point x="1072" y="375" type="curve" smooth="yes"/>
      <point x="1055" y="127" type="line" smooth="yes"/>
      <point x="1054" y="108"/>
      <point x="1048" y="100"/>
      <point x="1026" y="100" type="curve" smooth="yes"/>
      <point x="1005" y="100"/>
      <point x="1002" y="107"/>
      <point x="998" y="127" type="curve" smooth="yes"/>
      <point x="886" y="750" type="line" smooth="yes"/>
      <point x="608" y="750" type="line"/>
      <point x="513" y="127" type="line" smooth="yes"/>
      <point x="510" y="108"/>
      <point x="506" y="100"/>
      <point x="484" y="100" type="curve" smooth="yes"/>
      <point x="463" y="100"/>
      <point x="457" y="107"/>
      <point x="456" y="127" type="curve" smooth="yes"/>
      <point x="438" y="379" type="line" smooth="yes"/>
      <point x="432" y="465"/>
      <point x="455" y="490"/>
      <point x="516" y="490" type="curve"/>
      <point x="513" y="579"/>
      <point x="513" y="659"/>
      <point x="516" y="750" type="curve"/>
      <point x="392" y="747"/>
      <point x="121" y="747"/>
      <point x="0" y="750" type="curve"/>
      <point x="5" y="633"/>
      <point x="5" y="517"/>
      <point x="0" y="400" type="curve"/>
      <point x="67" y="410"/>
      <point x="82" y="372"/>
      <point x="92" y="286" type="curve" smooth="yes"/>
      <point x="157" y="-250" type="line"/>
      <point x="297" y="-244"/>
      <point x="482" y="-244"/>
      <point x="622" y="-250" type="curve"/>
      <point x="662" y="43" type="line" smooth="yes"/>
      <point x="666" y="70"/>
      <point x="673" y="81"/>
      <point x="692" y="81" type="curve" smooth="yes"/>
      <point x="711" y="81"/>
      <point x="719" y="71"/>
      <point x="722" y="43" type="curve" smooth="yes"/>
      <point x="754" y="-250" type="line"/>
      <point x="894" y="-244"/>
      <point x="1069" y="-244"/>
    </contour>
  </outline>
</glyph>
<glyph name="X" format="1">
  <advance width="1413"/>
  <unicode hex="0058"/>
  <outline>
    <contour>
      <point x="820" y="751" type="line"/>
      <point x="1018" y="740"/>
      <point x="1216" y="740"/>
      <point x="1414" y="751" type="curve"/>
      <point x="1408" y="632"/>
      <point x="1408" y="517"/>
      <point x="1414" y="399" type="curve"/>
      <point x="1126" y="399"/>
      <point x="1164" y="195"/>
      <point x="1164" y="195" type="curve"/>
      <point x="1160" y="310" type="line"/>
      <point x="1157" y="249"/>
      <point x="1244" y="87"/>
      <point x="1415" y="100" type="curve"/>
      <point x="1407" y="-26"/>
      <point x="1407" y="-126"/>
      <point x="1415" y="-251" type="curve"/>
      <point x="1122" y="-246"/>
      <point x="1099" y="-242"/>
      <point x="806" y="-249" type="curve"/>
      <point x="622" y="137" type="line"/>
    </contour>
    <contour>
      <point x="594" y="-250" type="line"/>
      <point x="396" y="-239"/>
      <point x="198" y="-239"/>
      <point x="0" y="-250" type="curve"/>
      <point x="6" y="-132"/>
      <point x="6" y="-17"/>
      <point x="0" y="101" type="curve"/>
      <point x="288" y="101"/>
      <point x="250" y="305"/>
      <point x="250" y="305" type="curve"/>
      <point x="254" y="190" type="line"/>
      <point x="257" y="251"/>
      <point x="170" y="413"/>
      <point x="-1" y="400" type="curve"/>
      <point x="7" y="525"/>
      <point x="7.0" y="625.0"/>
      <point x="-1.0" y="750.0" type="curve"/>
      <point x="292.0" y="745.0"/>
      <point x="315" y="741"/>
      <point x="608" y="748" type="curve"/>
      <point x="790" y="363" type="line"/>
    </contour>
  </outline>
</glyph>
<glyph name="Ccedilla" format="1">
  <advance width="1414"/>
  <unicode hex="00C7"/>
  <outline>
    <contour>
      <point x="1055" y="741"/>
      <point x="1232" y="740"/>
      <point x="1414" y="750" type="curve"/>
      <point x="1404" y="608"/>
      <point x="1404" y="466"/>
      <point x="1414" y="324" type="curve"/>
      <point x="1223" y="292"/>
      <point x="1043" y="276"/>
      <point x="876" y="277" type="curve"/>
      <point x="850" y="338"/>
      <point x="801" y="417"/>
      <point x="702" y="418" type="curve"/>
      <point x="631" y="418"/>
      <point x="592" y="380"/>
      <point x="592" y="320" type="curve"/>
      <point x="592" y="237"/>
      <point x="674" y="196"/>
      <point x="838" y="196" type="curve" smooth="yes"/>
      <point x="1087" y="196"/>
      <point x="1286" y="238"/>
      <point x="1405" y="290" type="curve"/>
      <point x="1401" y="177"/>
      <point x="1394" y="39"/>
      <point x="1411" y="-95" type="curve"/>
      <point x="1228" y="-120"/>
      <point x="1007" y="-164"/>
      <point x="833" y="-164" type="curve"/>
      <point x="282" y="-164"/>
      <point x="0" y="-41"/>
      <point x="0" y="321" type="curve"/>
      <point x="0" y="603"/>
      <point x="187" y="750"/>
      <point x="466" y="750" type="curve" smooth="yes"/>
      <point x="718" y="750"/>
      <point x="813" y="662"/>
      <point x="860" y="515" type="curve" smooth="yes"/>
      <point x="864" y="503"/>
      <point x="880" y="504"/>
      <point x="880" y="515" type="curve" smooth="yes"/>
      <point x="880" y="593"/>
      <point x="877" y="668"/>
      <point x="864" y="750" type="curve"/>
    </contour>
    <contour>
      <point x="563" y="-135" type="curve"/>
      <point x="1042" y="-129" type="line"/>
      <point x="1041" y="-173"/>
      <point x="1054" y="-212"/>
      <point x="1085" y="-250" type="curve"/>
      <point x="924" y="-243"/>
      <point x="594" y="-243"/>
      <point x="429" y="-250" type="curve"/>
      <point x="479" y="-214"/>
      <point x="523" y="-175"/>
    </contour>
  </outline>
</glyph>
<glyph name="IJ" format="1">
  <advance width="1414"/>
  <unicode hex="0132"/>
  <outline>
    <contour>
      <point x="835.0" y="168.0" type="curve"/>
      <point x="835" y="108"/>
      <point x="833" y="47"/>
      <point x="746" y="47" type="curve" smooth="yes"/>
      <point x="693" y="47"/>
      <point x="657" y="72"/>
      <point x="657" y="145" type="curve"/>
      <point x="0" y="145" type="line"/>
      <point x="0" y="-250" type="line"/>
      <point x="561" y="-250" type="line"/>
      <point x="568" y="-238"/>
      <point x="579" y="-209"/>
      <point x="581" y="-195" type="curve"/>
      <point x="638" y="-220"/>
      <point x="760" y="-250"/>
      <point x="916" y="-250" type="curve" smooth="yes"/>
      <point x="1194" y="-250"/>
      <point x="1334" y="-117"/>
      <point x="1334" y="120" type="curve" smooth="yes"/>
      <point x="1334" y="380" type="line"/>
      <point x="1354" y="380"/>
      <point x="1393" y="390"/>
      <point x="1414.0" y="400.0" type="curve"/>
      <point x="1414.0" y="750.0" type="line"/>
      <point x="738.0" y="750.0" type="line"/>
      <point x="738.0" y="480.0" type="line"/>
      <point x="771.0" y="477.0"/>
      <point x="807.0" y="471.0"/>
      <point x="835.0" y="460.0" type="curve"/>
      <point x="835.0" y="460.0"/>
      <point x="835.0" y="168.0"/>
    </contour>
    <contour>
      <point x="579" y="460" type="curve"/>
      <point x="597" y="466"/>
      <point x="626" y="476"/>
      <point x="658" y="480" type="curve"/>
      <point x="658" y="750" type="line"/>
      <point x="0" y="750" type="line"/>
      <point x="0" y="410" type="line"/>
      <point x="23" y="404"/>
      <point x="79" y="391"/>
      <point x="110" y="390" type="curve"/>
      <point x="110" y="390"/>
      <point x="110" y="210"/>
      <point x="110" y="210" type="curve"/>
      <point x="579" y="210" type="line"/>
      <point x="579" y="210"/>
      <point x="579" y="460"/>
    </contour>
  </outline>
</glyph>
<glyph name="Lcaron" format="1">
  <advance width="1414"/>
  <unicode hex="013D"/>
  <outline>
    <contour>
      <point x="0" y="-250" type="line"/>
      <point x="1414" y="-250" type="line"/>
      <point x="1414" y="278" type="line"/>
      <point x="1339" y="290"/>
      <point x="1155" y="302"/>
      <point x="1084" y="298" type="curve"/>
      <point x="1082" y="272"/>
      <point x="1046" y="150"/>
      <point x="1026" y="70" type="curve"/>
      <point x="569" y="70" type="line"/>
      <point x="569" y="440" type="line"/>
      <point x="607" y="448"/>
      <point x="697" y="459"/>
      <point x="724" y="460" type="curve"/>
      <point x="745" y="528"/>
      <point x="762" y="689"/>
      <point x="748" y="750" type="curve"/>
      <point x="0" y="750" type="line"/>
      <point x="0" y="400" type="line"/>
      <point x="23" y="394"/>
      <point x="79" y="381"/>
      <point x="110" y="380" type="curve"/>
      <point x="110" y="120" type="line"/>
      <point x="86" y="120"/>
      <point x="21" y="106"/>
      <point x="0" y="100" type="curve"/>
    </contour>
    <contour>
      <point x="826" y="750" type="line"/>
      <point x="826" y="615"/>
      <point x="817" y="491"/>
      <point x="781" y="426" type="curve"/>
      <point x="809" y="369"/>
      <point x="948" y="309"/>
      <point x="1023" y="312" type="curve"/>
      <point x="1101" y="368"/>
      <point x="1249" y="554"/>
      <point x="1249" y="750" type="curve"/>
    </contour>
  </outline>
</glyph>
